<svg fill="#FFFFFF" xmlns="http://www.w3.org/2000/svg" xmlns:xlink="http://www.w3.org/1999/xlink" version="1.1" x="0px" y="0px" viewBox="0 0 100 100" style="enable-background:new 0 0 100 100;" xml:space="preserve"><g><path d="M28.612,21.417H6.585v-9.47h22.027V21.417z M6.585,56.943h22.027v16.36H6.585V56.943z M11.989,65.03   c0,3.099,2.511,5.61,5.609,5.61s5.609-2.512,5.609-5.61c0-3.098-2.511-5.608-5.609-5.608S11.989,61.933,11.989,65.03z    M6.585,81.723h22.027v-5.712H6.585V81.723z M6.585,24.123v30.113h22.027V24.123H6.585z M54.607,11.947H32.58v9.47h22.028V11.947z    M32.58,56.943h22.028v16.36H32.58V56.943z M37.984,65.03c0,3.099,2.512,5.61,5.609,5.61c3.098,0,5.609-2.512,5.609-5.61   c0-3.098-2.511-5.608-5.609-5.608C40.496,59.422,37.984,61.933,37.984,65.03z M32.58,81.723h22.028v-5.712H32.58V81.723z    M32.58,24.123v30.113h22.028V24.123H32.58z M75.932,8.653l-21.324,5.52l2.372,9.168l21.325-5.52L75.932,8.653z M65.882,57.734   l21.324-5.52l4.1,15.838l-21.324,5.52L65.882,57.734z M73.141,64.209c0.775,2.999,3.836,4.801,6.835,4.025   c2.999-0.776,4.802-3.838,4.025-6.836c-0.776-3-3.837-4.802-6.836-4.025S72.363,61.21,73.141,64.209z M72.09,81.723l21.325-5.52   l-1.431-5.529l-21.325,5.519L72.09,81.723z M57.658,25.961l7.545,29.153l21.324-5.52l-7.545-29.153L57.658,25.961z M100,84.468H0   v6.879h100V84.468z"></path></g></svg>