<svg fill="#FFFFFF" xmlns="http://www.w3.org/2000/svg" xmlns:xlink="http://www.w3.org/1999/xlink" xmlns:sketch="http://www.bohemiancoding.com/sketch/ns" viewBox="0 0 60 58" version="1.1" x="0px" y="0px"><title>12 - Align to Top (Solid)</title><desc>Created with Sketch.</desc><g stroke="none" stroke-width="1" fill="none" fill-rule="evenodd" sketch:type="MSPage"><g sketch:type="MSLayerGroup" fill="#FFFFFF"><path d="M22.586,11 L18.414,11 L26.414,19 L30.586,19 L22.586,11" sketch:type="MSShapeGroup"></path><path d="M11,13.414 L11,19 L16.586,19 L11,13.414" sketch:type="MSShapeGroup"></path><path d="M15.586,11 L11.414,11 L19.414,19 L23.586,19 L15.586,11" sketch:type="MSShapeGroup"></path><path d="M29.586,11 L25.414,11 L33.414,19 L37.586,19 L29.586,11" sketch:type="MSShapeGroup"></path><path d="M36.586,11 L32.414,11 L40.414,19 L44.586,19 L36.586,11" sketch:type="MSShapeGroup"></path><path d="M0,58 L60,58 L60,0 L0,0 L0,58 Z M38.707,37.207 C38.512,37.402 38.256,37.5 38,37.5 C37.744,37.5 37.488,37.402 37.293,37.207 L31,30.914 L31,48.5 C31,49.053 30.553,49.5 30,49.5 C29.447,49.5 29,49.053 29,48.5 L29,30.914 L22.707,37.207 C22.512,37.402 22.256,37.5 22,37.5 C21.744,37.5 21.488,37.402 21.293,37.207 C20.902,36.816 20.902,36.184 21.293,35.793 L29.292,27.794 C29.384,27.701 29.495,27.628 29.618,27.577 C29.862,27.476 30.137,27.476 30.382,27.577 C30.505,27.628 30.616,27.701 30.708,27.794 L38.707,35.793 C39.098,36.184 39.098,36.816 38.707,37.207 L38.707,37.207 Z M9,9 L51,9 L51,21 L9,21 L9,9 Z" sketch:type="MSShapeGroup"></path><path d="M49,13.586 L49,11 L46.414,11 L49,13.586" sketch:type="MSShapeGroup"></path><path d="M43.586,11 L39.414,11 L47.414,19 L49,19 L49,16.414 L43.586,11" sketch:type="MSShapeGroup"></path></g></g></svg>