<svg fill="#FFFFFF" xmlns="http://www.w3.org/2000/svg" xmlns:xlink="http://www.w3.org/1999/xlink" version="1.1" x="0px" y="0px" viewBox="0 0 60 60" style="enable-background:new 0 0 60 60;" xml:space="preserve"><path d="M44.5,40c-2.1,0-4.1,0.7-5.8,2l-15.2-8.4c0.3-0.9,0.5-2,0.5-3.1s-0.2-2.1-0.5-3.1l16-8.9c1.5,0.9,3.3,1.4,5,1.4  c5.2,0,9.5-4.3,9.5-9.5S49.7,1,44.5,1S35,5.3,35,10.5c0,1.5,0.3,2.9,1,4.2l-15.3,8.6c-1.7-1.5-3.8-2.3-6.2-2.3C9.3,21,5,25.3,5,30.5  c0,5.2,4.3,9.5,9.5,9.5c2.3,0,4.5-0.8,6.2-2.3l15,8.3c-0.4,1.1-0.7,2.3-0.7,3.5c0,5.2,4.3,9.5,9.5,9.5s9.5-4.3,9.5-9.5  S49.7,40,44.5,40z"></path></svg>