<svg fill="#FFFFFF" xmlns="http://www.w3.org/2000/svg" xmlns:xlink="http://www.w3.org/1999/xlink" xmlns:sketch="http://www.bohemiancoding.com/sketch/ns" viewBox="0 0 60 58" version="1.1" x="0px" y="0px"><title>11 - Align to Bottom (Solid)</title><desc>Created with Sketch.</desc><g stroke="none" stroke-width="1" fill="none" fill-rule="evenodd" sketch:type="MSPage"><g sketch:type="MSLayerGroup" fill="#FFFFFF"><path d="M15.586,39 L11.414,39 L19.414,47 L23.586,47 L15.586,39" sketch:type="MSShapeGroup"></path><path d="M22.586,39 L18.414,39 L26.414,47 L30.586,47 L22.586,39" sketch:type="MSShapeGroup"></path><path d="M36.586,39 L32.414,39 L40.414,47 L44.586,47 L36.586,39" sketch:type="MSShapeGroup"></path><path d="M11,41.414 L11,47 L16.586,47 L11,41.414" sketch:type="MSShapeGroup"></path><path d="M29.586,39 L25.414,39 L33.414,47 L37.586,47 L29.586,39" sketch:type="MSShapeGroup"></path><path d="M0,58 L60,58 L60,0 L0,0 L0,58 Z M21.293,20.793 C21.684,20.402 22.316,20.402 22.707,20.793 L29,27.086 L29,9.5 C29,8.947 29.447,8.5 30,8.5 C30.553,8.5 31,8.947 31,9.5 L31,27.086 L37.293,20.793 C37.684,20.402 38.316,20.402 38.707,20.793 C39.098,21.184 39.098,21.816 38.707,22.207 L30.708,30.206 C30.616,30.299 30.505,30.372 30.382,30.423 C30.26,30.474 30.13,30.5 30,30.5 C29.87,30.5 29.74,30.474 29.618,30.423 C29.495,30.372 29.384,30.299 29.292,30.206 L21.293,22.207 C20.902,21.816 20.902,21.184 21.293,20.793 L21.293,20.793 Z M9,37 L51,37 L51,49 L9,49 L9,37 Z" sketch:type="MSShapeGroup"></path><path d="M43.586,39 L39.414,39 L47.414,47 L49,47 L49,44.414 L43.586,39" sketch:type="MSShapeGroup"></path><path d="M49,41.586 L49,39 L46.414,39 L49,41.586" sketch:type="MSShapeGroup"></path></g></g></svg>