<svg fill="#FFFFFF" xmlns="http://www.w3.org/2000/svg" xmlns:xlink="http://www.w3.org/1999/xlink" version="1.1" x="0px" y="0px" viewBox="0 0 512 512" style="enable-background:new 0 0 512 512;" xml:space="preserve"><g><rect x="245.3" width="21.3" height="42.7"></rect><rect x="138.7" y="28.6" transform="matrix(0.8661 -0.4999 0.4999 0.8661 -4.9516 81.3439)" width="21.3" height="42.7"></rect><rect x="60.6" y="106.7" transform="matrix(0.5 -0.866 0.866 0.5 -75.2148 125.7008)" width="21.3" height="42.7"></rect><rect x="21.3" y="224" width="42.7" height="21.3"></rect><rect x="49.9" y="330.6" transform="matrix(0.8661 -0.4999 0.4999 0.8661 -161.0856 81.3353)" width="42.7" height="21.3"></rect><rect x="430.1" y="320" transform="matrix(0.5 -0.866 0.866 0.5 -75.2198 552.3296)" width="21.3" height="42.7"></rect><rect x="448" y="224" width="42.7" height="21.3"></rect><rect x="419.4" y="117.3" transform="matrix(0.8661 -0.4999 0.4999 0.8661 -4.9569 237.4799)" width="42.7" height="21.3"></rect><rect x="341.3" y="39.2" transform="matrix(0.4999 -0.8661 0.8661 0.4999 138.1286 339.0484)" width="42.7" height="21.3"></rect><path d="M168.2,448h175.6c0.9-7.1,2-14.2,3.3-21.3H165.1C166.4,433.7,167.4,440.8,168.2,448z"></path><path d="M170.7,490v22h170.7v-26.5c0-5.4,0.3-10.8,0.6-16.2H170C170.4,476.2,170.7,483.1,170.7,490z"></path><path d="M373.3,469.3V448h-29.6c-0.9,7.1-1.5,14.2-1.9,21.3H373.3z"></path><path d="M138.7,448v21.3H170c-0.4-7.2-1-14.3-1.8-21.3H138.7z"></path><path d="M384,426.6v-21.3h-32.2c-1.8,7.1-3.4,14.2-4.8,21.3H384z"></path><path d="M128,405.3v21.3h37.1c-1.2-7.2-2.7-14.3-4.4-21.3H128z"></path><path d="M362.7,104.8C328.3,74,283.9,60,237.8,65c-73,8.1-132.2,66.9-140.6,139.8c-4.4,37.3,3.8,73.7,23.9,105   c18.2,28.6,31.4,60.9,39.7,95.5h191.1c8.7-33.8,22.6-67.3,42.1-100.2c14.4-24.5,22.1-52.6,22.1-81.1   C416,178.5,396.6,135.1,362.7,104.8z M212.3,266.6l-15.1,15.1l-52.3-52.3l52.3-52.3l15.1,15.1l-37.3,37.3L212.3,266.6z    M239.8,304.2l-20-7.3l51.8-142.5l20,7.3L239.8,304.2z M314.7,281.7l-15.1-15.1l37.3-37.3l-37.3-37.3l15.1-15.1l52.3,52.3   L314.7,281.7z"></path></g></svg>