<svg fill="#FFFFFF" xmlns="http://www.w3.org/2000/svg" xmlns:xlink="http://www.w3.org/1999/xlink" version="1.1" x="0px" y="0px" viewBox="0 0 100 100" style="enable-background:new 0 0 100 100;" xml:space="preserve"><path d="M87.4,40.7c-0.8-19.8-17-35.5-36.8-35.8C40.5,4.7,30.9,8.5,23.8,15.6c-7.2,7.1-11.2,16.6-11.2,26.7  c0,0.4,0,0.7,0,1.1c0.3,9.4,4.2,18.4,11.2,25.3l26.3,26.2l26.9-26.6l0,0C84.1,60.8,87.8,51,87.4,40.7z M50,59.1  c-9.2,0-16.6-7.4-16.6-16.6c0-9.2,7.4-16.6,16.6-16.6s16.6,7.4,16.6,16.6C66.6,51.7,59.2,59.1,50,59.1z"></path></svg>